<svg width="800" height="600" xmlns="http://www.w3.org/2000/svg">
 <!-- Created with Method Draw - http://github.com/duopixel/Method-Draw/ -->

 <g>
  <title>background</title>
  <rect fill="#fff" id="canvas_background" height="602" width="802" y="-1" x="-1"/>
  <g display="none" overflow="visible" y="0" x="0" height="100%" width="100%" id="canvasGrid">
   <rect fill="url(#gridpattern)" stroke-width="0" y="0" x="0" height="100%" width="100%"/>
  </g>
 </g>
 <g>
  <title>Layer 1</title>
  <ellipse stroke="#ffffff" ry="298" rx="398.00001" id="svg_1" cy="299.70588" cx="400.44114" stroke-width="1.5" fill="#2c4870"/>
  <g stroke="null" transform="rotate(-45 403.9690246582032,300.39953613281256) " id="svg_6">
   <path stroke="#2c4870" id="svg_5" d="m535.96281,208.55327c-74.92885,0 -81.62059,21.44611 -132.00538,21.19353c-50.38479,0.25258 -56.9839,-21.19353 -132.00538,-21.19353c-49.06497,0 -101.81155,7.62324 -145.85193,16.41752l0,33.56982c7.59477,6.33739 23.13162,10.26382 23.17793,32.55951c0.13893,87.87393 36.76978,100.73241 106.58143,101.14571c93.77684,0 106.4425,-21.28538 122.09513,-95.24459c3.47322,-16.41752 11.8784,-26.35988 25.97966,-26.35988s22.50644,9.96532 25.97966,26.35988c15.69894,73.95922 28.3646,95.24459 122.14144,95.24459c69.8348,-0.41331 106.46566,-13.27179 106.60459,-101.14571c0.04631,-22.29568 15.58316,-26.22211 23.17793,-32.55951l0,-33.56982c-44.06354,-8.79428 -96.81012,-16.41752 -145.87509,-16.41752zm-180.49148,82.29427c-12.96667,61.1237 -15.93049,79.03372 -99.49607,78.43672c-65.73641,-0.39035 -83.56559,-13.08809 -83.56559,-78.66634c0,-34.80974 0,-59.10308 99.54238,-59.10308c44.57294,0 71.91873,10.12605 81.29642,23.60449c4.97828,7.18697 5.74238,19.19587 2.22286,35.7282zm196.46827,78.43672c-83.54243,0.597 -86.50624,-17.31302 -99.49607,-78.43672c-3.49637,-16.53233 -2.75542,-28.56419 2.24601,-35.7282c9.35453,-13.47844 36.70032,-23.60449 81.27326,-23.60449c99.54238,0 99.54238,24.29334 99.54238,59.10308c0,65.57824 -17.82918,78.27599 -83.56559,78.66634zm-17.82918,-118.25208c79.60612,0 79.60612,19.44845 79.60612,47.30083c0,5.32708 -0.27786,9.9194 -0.57887,14.41987c-11.64685,-39.63167 -30.44853,-48.95407 -79.02725,-61.7207zm-339.33324,61.7207c-0.32417,-4.50047 -0.60202,-9.09278 -0.60202,-14.41987c0,-27.85238 0,-47.30083 79.60612,-47.30083c-48.55557,12.76663 -67.35724,22.08903 -79.0041,61.7207z" fill="#ffffff"/>
  </g>
 </g>
</svg>