<svg width="260" height="125.00000000000001" xmlns="http://www.w3.org/2000/svg">
 <!-- Created with Method Draw - http://github.com/duopixel/Method-Draw/ -->

 <g>
  <title>background</title>
  <rect fill="none" id="canvas_background" height="127" width="262" y="-1" x="-1"/>
  <g display="none" overflow="visible" y="0" x="0" height="100%" width="100%" id="canvasGrid">
   <rect fill="url(#gridpattern)" stroke-width="0" y="0" x="0" height="100%" width="100%"/>
  </g>
 </g>
 <g>
  <title>Layer 1</title>
  <text stroke="#000000" transform="matrix(5.598505141733714,0,0,3.2697418125815663,-856.3332010136317,-540.7274551168824) " font-style="italic" xml:space="preserve" text-anchor="start" font-family="Euphoria, sans-serif" font-size="24" id="svg_1" y="190.13498" x="153.27328" stroke-width="0" fill="#2c4870">Ro  in</text>
  <g stroke="#000" stroke-width="0" fill="#000000" transform="rotate(-48 159.84558105468747,62.976036071777344) " id="svg_6">
   <path stroke="#000000" stroke-width="0" id="svg_5" d="m174.77469,49.27801c-8.47479,0 -9.23166,3.19849 -14.93041,3.16082c-5.69875,0.03767 -6.44514,-3.16082 -14.93041,-3.16082c-5.54947,0 -11.51535,1.13694 -16.49651,2.44852l0,5.00663c0.859,0.94516 2.61629,1.53076 2.62153,4.85595c0.01571,13.10559 4.15883,15.02332 12.05484,15.08496c10.60659,0 12.03913,-3.17452 13.80951,-14.20486c0.39284,-2.44852 1.3435,-3.93134 2.93842,-3.93134s2.54558,1.48624 2.93842,3.93134c1.77562,11.03034 3.20816,14.20486 13.81475,14.20486c7.89863,-0.06164 12.04175,-1.97937 12.05746,-15.08496c0.00524,-3.3252 1.76253,-3.91079 2.62153,-4.85595l0,-5.00663c-4.98379,-1.31159 -10.94966,-2.44852 -16.49913,-2.44852zm-20.4144,12.27344c-1.46659,9.11604 -1.80181,11.78716 -11.25346,11.69812c-7.43509,-0.05822 -9.45165,-1.95197 -9.45165,-11.73237c0,-5.19155 0,-8.81468 11.25869,-8.81468c5.0414,0 8.13433,1.51021 9.19499,3.52039c0.56307,1.07187 0.64949,2.86289 0.25142,5.32854zm22.22145,11.69812c-9.44903,0.08904 -9.78425,-2.58208 -11.25346,-11.69812c-0.39546,-2.46565 -0.31165,-4.26009 0.25403,-5.32854c1.05804,-2.01019 4.15097,-3.52039 9.19237,-3.52039c11.25869,0 11.25869,3.62313 11.25869,8.81468c0,9.7804 -2.01656,11.67415 -9.45165,11.73237zm-2.01656,-17.63622c9.00381,0 9.00381,2.90056 9.00381,7.05449c0,0.79449 -0.03143,1.47939 -0.06547,2.15059c-1.31731,-5.9107 -3.44387,-7.30105 -8.93834,-9.20508zm-38.38013,9.20508c-0.03666,-0.6712 -0.06809,-1.35611 -0.06809,-2.15059c0,-4.15393 0,-7.05449 9.00381,-7.05449c-5.49185,1.90403 -7.61841,3.29438 -8.93572,9.20508z" fill="#2c4870"/>
  </g>
 </g>
</svg>